<svg width="82px" height="82px" viewBox="0 0 82 82" version="1.1" xmlns="http://www.w3.org/2000/svg" xmlns:xlink="http://www.w3.org/1999/xlink">
    <defs>
        <linearGradient x1="0%" y1="20.7176904%" x2="100%" y2="79.2823096%" id="linearGradient-1">
            <stop stop-color="#14E4C1" offset="0%"></stop>
            <stop stop-color="#21EDFF" offset="100%"></stop>
        </linearGradient>
    </defs>
    <g id="Page-1" stroke="none" stroke-width="1" fill="none" fill-rule="evenodd">
        <g id="Lint-Dashboard-Dark" transform="translate(-1178.000000, -1161.000000)">
            <g id="Blog-Card" transform="translate(1027.000000, 1073.000000)">
                <g id="img" transform="translate(133.000000, 65.000000)">
                    <path d="M17.2248036,84.0105981 C31.9155895,108.442449 42.0909112,61.3062561 79.7170785,73.5077389 C111.744896,83.8937784 105.340723,55.8290739 86.1414,37.9621246 C73.6990996,26.3832811 53.0330242,14.6287261 32.9313579,28.2826919 C15.0769088,40.4102456 5.26843023,64.1262748 17.2248036,84.0105981 Z" id="Path-2" fill-opacity="0.89" fill="url(#linearGradient-1)" transform="translate(57.054421, 56.644463) rotate(-44.000000) translate(-57.054421, -56.644463) "></path>
                    <g id="terms-and-conditions" transform="translate(25.000000, 30.000000)" fill-rule="nonzero">
                        <path d="M4.05023492,0 C1.81273849,0 0,1.90257528 0,4.25095892 L0,11.7 L8.1,11.7 L8.1,4.25095892 C8.1,1.90257528 6.28632172,0 4.05023492,0 Z" id="Path" fill="#EDD4C2"></path>
                        <path d="M50.7594029,0 L4.5,0 C6.78741571,0 8.64059712,1.85483554 8.64059712,4.14321899 L8.64059712,63 L54.9,63 L54.9,4.14321899 C54.9,1.85483554 53.0448972,0 50.7594029,0 Z" id="Path" fill="#FFEFE4"></path>
                        <polygon id="Path" fill="#EDD4C2" points="8.1 60.3 54 60.3 54 63 8.1 63"></polygon>
                        <path d="M50.7594029,0 L4.5,0 C6.18842212,0 7.63955243,0.964716157 8.28417908,2.34759825 L50.7594029,2.34759825 C53.0448972,2.34759825 54.9,4.11700876 54.9,6.3 L54.9,3.95240175 C54.9,1.76941051 53.0448972,0 50.7594029,0 Z" id="Path" fill="#FFF7F2"></path>
                        <polygon id="Path" fill="#FF8354" points="63 55.8 57.6 55.8 57.6 17.1 63 17.1"></polygon>
                        <polygon id="Path" fill="#FFEFE4" points="63 57.6 57.6 57.6 57.6 55.8 63 55.8"></polygon>
                        <path d="M57.6,57.6 L63,57.6 L63,60.3046511 C63,61.7934884 61.7914065,63 60.3,63 C58.8090596,63 57.6,61.7934884 57.6,60.3046511 L57.6,57.6 Z" id="Path" fill="#6770E6"></path>
                        <path d="M60.3,60.4669721 C58.8090596,60.4669721 57.6,59.1836373 57.6,57.6 L57.6,60.1330279 C57.6,61.7166652 58.8090596,63 60.3,63 C61.7914065,63 63,61.7166652 63,60.1330279 L63,57.6 C63,59.1836373 61.7914065,60.4669721 60.3,60.4669721 L60.3,60.4669721 Z" id="Path" fill="#5861C7"></path>
                        <path d="M57.6,17.1 L60.1005867,10.0421099 C60.167679,9.85263004 60.432321,9.85263004 60.4994133,10.0421099 L63,17.1 L57.6,17.1 Z" id="Path" fill="#EDD4C2"></path>
                        <path d="M58.5,13.5 L61.2,13.5 L60.0496462,10.0509281 C59.9825538,9.84969062 59.717446,9.84969062 59.6503537,10.0509281 L58.5,13.5 Z" id="Path" fill="#5861C7"></path>
                        <path d="M58.5,13.5 L61.2,13.5 L60.0496462,10.0509281 C59.9825538,9.84969062 59.717446,9.84969062 59.6503537,10.0509281 L58.5,13.5 Z" id="Path" fill="#5861C7"></path>
                        <path d="M59.5462559,11.3740502 C59.6485396,11.1669672 60.0509824,11.1669672 60.1527881,11.3740502 L61.2,13.5 L60.0543281,10.0553123 C59.9855018,9.84822925 59.7140201,9.84822925 59.6451938,10.0553123 L58.5,13.4989698 L59.5462559,11.3740502 Z" id="Path" fill="#8F95E6"></path>
                        <g id="Group" transform="translate(15.300000, 6.300000)" fill="#6770E6">
                            <path d="M30.2633551,19.1702243 L6.0844067,19.1702243 C5.46679691,19.1702243 4.96558277,18.6654926 4.96558277,18.0429584 C4.96558277,17.4199452 5.46679691,16.9152136 6.0844067,16.9152136 L30.2628801,16.9152136 C30.8809649,16.9152136 31.3817043,17.4199452 31.3817043,18.0429584 C31.3821791,18.6654926 30.8809649,19.1702243 30.2633551,19.1702243 Z" id="Path"></path>
                            <path d="M30.2633551,25.079511 L6.0844067,25.079511 C5.46679691,25.079511 4.96558277,24.5747794 4.96558277,23.9517662 C4.96558277,23.329232 5.46679691,22.8245004 6.0844067,22.8245004 L30.2628801,22.8245004 C30.8809649,22.8245004 31.3817043,23.329232 31.3817043,23.9517662 C31.3821791,24.5747794 30.8809649,25.079511 30.2633551,25.079511 Z" id="Path"></path>
                            <path d="M30.2633551,30.9887978 L6.0844067,30.9887978 C5.46679691,30.9887978 4.96558277,30.4840661 4.96558277,29.861053 C4.96558277,29.2385187 5.46679691,28.7333082 6.0844067,28.7333082 L30.2628801,28.7333082 C30.8809649,28.7333082 31.3817043,29.2385187 31.3817043,29.861053 C31.3821791,30.4840661 30.8809649,30.9887978 30.2633551,30.9887978 Z" id="Path"></path>
                            <path d="M30.2633551,36.8976057 L6.0844067,36.8976057 C5.46679691,36.8976057 4.96558277,36.392874 4.96558277,35.7703397 C4.96558277,35.1473266 5.46679691,34.6425951 6.0844067,34.6425951 L30.2628801,34.6425951 C30.8809649,34.6425951 31.3817043,35.1473266 31.3817043,35.7703397 C31.3821791,36.392874 30.8809649,36.8976057 30.2633551,36.8976057 Z" id="Path"></path>
                            <path d="M2.33884082,18.0424795 C2.33884082,18.6654926 1.83762669,19.1702243 1.22001689,19.1702243 C0.601932041,19.1702243 0.100717905,18.6654926 0.100717905,18.0424795 C0.100717905,17.4194664 0.601932041,16.9147347 1.22001689,16.9147347 C1.83762669,16.9147347 2.33884082,17.4194664 2.33884082,18.0424795 Z" id="Path"></path>
                            <path d="M2.33884082,23.9517662 C2.33884082,24.5747794 1.83762669,25.0799898 1.22001689,25.0799898 C0.601932041,25.0799898 0.100717905,24.5747794 0.100717905,23.9517662 C0.100717905,23.329232 0.601932041,22.8240216 1.22001689,22.8240216 C1.83762669,22.8240216 2.33884082,23.329232 2.33884082,23.9517662 Z" id="Path"></path>
                            <path d="M2.33884082,29.861053 C2.33884082,30.4840661 1.83762669,30.9887978 1.22001689,30.9887978 C0.601932041,30.9887978 0.100717905,30.4840661 0.100717905,29.861053 C0.100717905,29.2380399 0.601932041,28.7333082 1.22001689,28.7333082 C1.83762669,28.7333082 2.33884082,29.2380399 2.33884082,29.861053 L2.33884082,29.861053 Z" id="Path"></path>
                            <path d="M2.33884082,35.7703397 C2.33884082,36.392874 1.83762669,36.8980845 1.22001689,36.8980845 C0.601932041,36.8980845 0.100717905,36.392874 0.100717905,35.7703397 C0.100717905,35.1473266 0.601932041,34.6425951 1.22001689,34.6425951 C1.83762669,34.6425951 2.33884082,35.1473266 2.33884082,35.7703397 L2.33884082,35.7703397 Z" id="Path"></path>
                            <path d="M4.76937292,9.93037917 L4.76937292,2.21095434 L2.78114449,2.21095434 C2.26472765,2.21095434 1.84570309,1.78906769 1.84570309,1.2680544 C1.84570309,0.747519955 2.26472765,0.325154464 2.78114449,0.325154464 L8.72967697,0.325154464 C9.24656886,0.325154464 9.66511824,0.747519955 9.66511824,1.2680544 C9.66511824,1.78906769 9.24656886,2.21095434 8.72967697,2.21095434 L6.74144854,2.21095434 L6.74144854,9.93037917 C6.74144854,10.4513925 6.32242399,10.8732791 5.80600715,10.8732791 L5.70481419,10.8732791 C5.18839735,10.8732791 4.76937292,10.4513925 4.76937292,9.93037917 Z" id="Path"></path>
                            <path d="M18.3216321,8.70829653 L18.8366237,9.33083079 C19.1539801,9.71488661 19.0907939,10.2876181 18.697424,10.5917022 C18.3244827,10.8809411 17.7919129,10.8196454 17.4926098,10.4537869 L17.268845,10.1803507 C16.576647,10.8004905 15.744299,11.1098422 14.7699007,11.1098422 C14.2240287,11.1098422 13.7152132,11.0183775 13.2425042,10.836406 C12.7693202,10.6553922 12.357897,10.4001532 12.0077597,10.0702099 C11.6571474,9.74170347 11.3811233,9.3509435 11.1811128,8.89888785 C10.9811021,8.44778989 10.8813345,7.95167797 10.8813345,7.41103094 C10.8813345,6.82201781 11.0252851,6.26221576 11.3131862,5.73114618 C11.5996622,5.20151325 12.0020587,4.74897863 12.5194257,4.37641588 C12.3336676,4.1206979 12.1825908,3.85588144 12.0661952,3.58005087 C11.9483742,3.30565696 11.8899388,3.01546015 11.8899388,2.71089724 C11.8899388,2.3474331 11.9564506,2.00743355 12.0875739,1.68706788 C12.2196474,1.36813873 12.4063555,1.09135048 12.6500739,0.854787397 C12.8937922,0.620139929 13.1816934,0.432900748 13.5123521,0.294985465 C13.8439611,0.158506831 14.2097762,0.0885913834 14.6093222,0.0885913834 C15.311022,0.0885913834 15.873522,0.252844684 16.2968222,0.582787812 C16.413693,0.673294808 16.5210621,0.770026993 16.6194046,0.873463455 C17.0203758,1.29439242 16.9177575,1.98301103 16.4060916,2.25548958 L16.3144003,2.30433451 C15.9994193,2.47241879 15.6274283,2.37903862 15.3822846,2.11853198 C15.1395165,1.86137747 14.8197846,1.78284238 14.6373521,1.78284238 C14.3556271,1.78284238 14.1309122,1.86664498 13.9651077,2.03329273 C13.7997783,2.20137689 13.7166385,2.41208079 13.7166385,2.66779877 C13.7166385,2.82486896 13.7513196,2.96853071 13.8192568,3.10165721 C13.8871939,3.23478382 13.9798352,3.37365679 14.0971811,3.52114952 L17.2398649,7.38181975 L17.6702913,6.67548277 C17.9078337,6.28568061 18.416174,6.16692022 18.7995672,6.41114514 C19.18106,6.65393353 19.2941301,7.16201723 19.0527872,7.54559408 L18.3216321,8.70829653 Z M14.8577913,9.37105608 C15.4027132,9.37105608 15.851193,9.20823943 16.2022804,8.88452162 L13.5570101,5.65787872 C13.2843116,5.8642728 13.0752744,6.11711748 12.9289485,6.41689161 C12.7826224,6.71666574 12.7085094,7.02362311 12.7085094,7.33776348 C12.7085094,7.65238268 12.7678949,7.9349174 12.8847656,8.18441007 C13.0011614,8.43486042 13.1598395,8.64939531 13.359375,8.82562039 C13.5593855,9.00184547 13.7888514,9.1373663 14.0468222,9.23074647 C14.3047931,9.32460548 14.5751162,9.37105608 14.8577913,9.37105608 L14.8577913,9.37105608 Z" id="Shape"></path>
                            <path d="M29.3369405,8.49136732 C29.7654666,8.90080334 29.7284101,9.59373177 29.2680533,9.9658158 C28.9483213,10.224407 28.6024599,10.4413362 28.2304688,10.6156458 C27.528769,10.9441524 26.7444046,11.1093634 25.8778506,11.1093634 C25.0972868,11.1093634 24.3742082,10.9666593 23.7071896,10.6812513 C23.0396959,10.3972799 22.4615182,10.0089143 21.9750317,9.51854882 C21.487595,9.02674672 21.1032517,8.44539556 20.8201014,7.77162191 C20.536951,7.09880606 20.3968011,6.37475083 20.3968011,5.59897737 C20.3968011,4.8232039 20.536951,4.09914867 20.8201014,3.42537502 C21.1032517,2.75255918 21.487595,2.17120801 21.9750317,1.67940592 C22.4615182,1.18904047 23.0396959,0.800674834 23.7071896,0.516703467 C24.3742082,0.231295452 25.0972868,0.0885913834 25.8778506,0.0885913834 C26.7149493,0.0885913834 27.4537057,0.236084116 28.091269,0.531069581 C28.4295291,0.68718208 28.7473607,0.880167732 29.0457136,1.11002654 C29.4794658,1.44475833 29.5003695,2.09937708 29.1084249,2.48199624 L29.02481,2.56340451 C28.6965266,2.88377031 28.1910368,2.89717861 27.827122,2.61847488 C27.6703442,2.49827785 27.5050148,2.39148925 27.3311338,2.2981092 C26.9268371,2.08213767 26.4474767,1.97439138 25.892103,1.97439138 C25.4041913,1.97439138 24.9462099,2.06058843 24.5181588,2.23202473 C24.0886824,2.4048978 23.7166913,2.64720723 23.39981,2.96086875 C23.0834037,3.27644564 22.8325591,3.65667047 22.6472762,4.10345849 C22.4615182,4.55072548 22.370302,5.04827404 22.370302,5.59897737 C22.370302,6.14920185 22.4619932,6.64675042 22.6472762,7.0940174 C22.8325591,7.54128426 23.0838788,7.92103013 23.39981,8.23517049 C23.7166913,8.55074751 24.0886824,8.79257809 24.5181588,8.96545104 C24.9462099,9.13688746 25.4041913,9.22308451 25.892103,9.22308451 C26.4759818,9.22308451 26.9957243,9.10336632 27.4489548,8.86201458 C27.6617926,8.74900079 27.8632284,8.61395868 28.0527872,8.45640965 C28.4323797,8.14226929 28.9806271,8.15088893 29.3369405,8.49136732 L29.3369405,8.49136732 Z" id="Path"></path>
                        </g>
                        <path d="M22.3822661,55.8 L16.3172415,55.8 C15.755665,55.8 15.3,55.344335 15.3,54.7827587 L15.3,48.7172413 C15.3,48.1551724 15.755665,47.7 16.3172415,47.7 L22.3827587,47.7 C22.9448276,47.7 23.4,48.1551724 23.4,48.7172413 L23.4,54.7827587 C23.4,55.344335 22.944335,55.8 22.3822661,55.8 Z" id="Path" fill="#EDD4C2"></path>
                        <path d="M19.194021,54 C18.9902319,54 18.7845384,53.9372666 18.612651,53.8095597 L17.4561013,52.9487699 C17.0499519,52.646306 16.9809113,52.0911166 17.3023073,51.7084439 C17.6232273,51.3262192 18.2136438,51.2612455 18.6197932,51.5637093 L19.0511781,51.884545 L20.8343314,49.825102 C21.1614411,49.4473583 21.75281,49.3904502 22.154198,49.6982913 C22.5560622,50.0065804 22.6165322,50.5626659 22.2889462,50.9408578 L19.9220426,53.6746832 C19.7368231,53.8884243 19.4668505,54 19.194021,54 Z" id="Path" fill="#6770E6"></path>
                        <path d="M45.6823346,53.1 L28.1176654,53.1 C27.5006951,53.1 27,52.4956679 27,51.7497134 C27,51.0043321 27.5006951,50.4 28.1176654,50.4 L45.6823346,50.4 C46.2993049,50.4 46.8,51.0043321 46.8,51.7497134 C46.8,52.4956679 46.2993049,53.1 45.6823346,53.1 L45.6823346,53.1 Z" id="Path" fill="#6770E6"></path>
                    </g>
                </g>
            </g>
        </g>
    </g>
</svg>