<svg width="10px" height="10px" viewBox="0 0 10 10" version="1.1" xmlns="http://www.w3.org/2000/svg" xmlns:xlink="http://www.w3.org/1999/xlink">
    <g id="Page-1" stroke="none" stroke-width="1" fill="none" fill-rule="evenodd">
        <g id="Lint-Dashboard-Dark" transform="translate(-1047.000000, -984.000000)" fill="#75D34C" fill-rule="nonzero">
            <g id="Score-Card" transform="translate(1027.000000, 908.000000)">
                <g id="this-week" transform="translate(16.000000, 72.000000)">
                    <g id="tag" transform="translate(4.000000, 0.000000)">
                        <path d="M9.14699149,4 L2.84377043,4 C2.37265383,4 1.99076192,4.38189191 1.99076192,4.85300851 C1.99076192,5.32412511 2.37265383,5.70601702 2.84377043,5.70601702 L7.0876157,5.70601702 L0.249856855,12.5438185 C-0.0832856182,12.876961 -0.0832856182,13.4170433 0.249856855,13.7501431 C0.582956677,14.083243 1.12303901,14.0832856 1.45618149,13.7501431 L8.29398298,6.91234165 L8.29398298,11.1561869 C8.29398298,11.6273035 8.67587489,12.0091954 9.14699149,12.0091954 C9.61810809,12.0091954 10,11.6273035 10,11.1561869 L10,4.85300851 C10,4.38875863 9.62271434,4 9.14699149,4 Z" id="Shape"></path>
                    </g>
                </g>
            </g>
        </g>
    </g>
</svg>