<?xml version="1.0" encoding="UTF-8"?>
<svg width="16px" height="16px" viewBox="0 0 16 16" version="1.1" xmlns="http://www.w3.org/2000/svg" xmlns:xlink="http://www.w3.org/1999/xlink">
    <!-- Generator: Sketch 55.2 (78181) - https://sketchapp.com -->
    <title>009-four</title>
    <desc>Created with Sketch.</desc>
    <g id="Page-1" stroke="none" stroke-width="1" fill="none" fill-rule="evenodd">
        <g id="Lint-Dashboard-Dark" transform="translate(-1083.000000, -30.000000)" fill="#97A4BA">
            <g id="Navbar">
                <g id="009-four" transform="translate(1083.000000, 30.000000)">
                    <path d="M6.84964356,0 L0.350356439,0 C0.156959685,0 0,0.156955866 0,0.350347915 L0,6.84965209 C0,7.04304413 0.156959685,7.2 0.350356439,7.2 L6.84964356,7.2 C7.04304032,7.2 7.2,7.04304413 7.2,6.84965209 L7.2,0.350347915 C7.2,0.156955866 7.04304032,0 6.84964356,0 Z" id="Path"></path>
                    <path d="M15.6496521,0 L9.15034791,0 C8.95695587,0 8.8,0.156955866 8.8,0.350347915 L8.8,6.84965209 C8.8,7.04304413 8.95695587,7.2 9.15034791,7.2 L15.6496521,7.2 C15.8430441,7.2 16,7.04304413 16,6.84965209 L16,0.350347915 C16,0.156955866 15.8432193,0 15.6496521,0 Z" id="Path"></path>
                    <path d="M6.84964356,8.8 L0.350356439,8.8 C0.156959685,8.8 0,8.95695587 0,9.15034791 L0,15.6496521 C0,15.8430441 0.156959685,16 0.350356439,16 L6.84964356,16 C7.04304032,16 7.2,15.8430441 7.2,15.6496521 L7.2,9.15034791 C7.2,8.95713104 7.04304032,8.8 6.84964356,8.8 Z" id="Path"></path>
                    <path d="M15.6496521,8.8 L9.15034791,8.8 C8.95695587,8.8 8.8,8.95695587 8.8,9.15034791 L8.8,15.6496521 C8.8,15.8430441 8.95695587,16 9.15034791,16 L15.6496521,16 C15.8430441,16 16,15.8430441 16,15.6496521 L16,9.15034791 C16,8.95713104 15.8432193,8.8 15.6496521,8.8 Z" id="Path"></path>
                </g>
            </g>
        </g>
    </g>
</svg>