<?xml version="1.0" encoding="UTF-8"?>
<svg width="21px" height="21px" viewBox="0 0 21 21" version="1.1" xmlns="http://www.w3.org/2000/svg" xmlns:xlink="http://www.w3.org/1999/xlink">
    <!-- Generator: Sketch 55.2 (78181) - https://sketchapp.com -->
    <title>notif</title>
    <desc>Created with Sketch.</desc>
    <g id="Page-1" stroke="none" stroke-width="1" fill="none" fill-rule="evenodd">
        <g id="Lint-Dashboard-Dark" transform="translate(-1030.000000, -27.000000)">
            <g id="Navbar">
                <g id="notif" transform="translate(1030.000000, 27.000000)">
                    <g id="023-notification" transform="translate(0.000000, 1.000000)" fill="#424B5F">
                        <path d="M15.9432549,16.1943764 L14.5696136,13.9047815 C13.9352013,12.8479963 13.5999757,11.637574 13.5999757,10.4055893 L13.5999757,8.39998125 C13.5999757,5.8679869 11.9103096,3.72640418 9.5998067,3.03599322 L9.5998067,1.60000893 C9.5998067,0.717598398 8.88217863,0 7.99973161,0 C7.11728459,0 6.39965651,0.717598398 6.39965651,1.60000893 L6.39965651,3.03599322 C4.08919113,3.72640418 2.39952503,5.8679869 2.39952503,8.39998125 L2.39952503,10.4055893 C2.39952503,11.637574 2.06429942,12.8471713 1.43067463,13.903994 L0.057033393,16.1935889 C-0.0173695176,16.3176011 -0.0189820806,16.4712007 0.0522332053,16.596788 C0.123448491,16.7223752 0.255453655,16.8 0.399459289,16.8 L15.6000414,16.8 C15.7440471,16.8 15.8768398,16.7224127 15.948055,16.597613 C16.0192703,16.4727757 16.0168702,16.3175636 15.9432549,16.1943764 Z" id="Path"></path>
                        <path d="M5.6,17.6 C6.02985181,18.5424051 6.93985725,19.2 7.99998214,19.2 C9.06010703,19.2 9.97014819,18.5424051 10.4,17.6 L5.6,17.6 L5.6,17.6 Z" id="Path"></path>
                    </g>
                    <circle id="Oval" fill="#FC381D" cx="17.5" cy="3.5" r="3.5"></circle>
                </g>
            </g>
        </g>
    </g>
</svg>