<svg width="16px" height="17px" viewBox="0 0 16 17" version="1.1" xmlns="http://www.w3.org/2000/svg" xmlns:xlink="http://www.w3.org/1999/xlink">
    <g id="Page-1" stroke="none" stroke-width="1" fill="none" fill-rule="evenodd">
        <g id="Lint-Dashboard-Dark" transform="translate(-1218.000000, -1330.000000)" fill="#67758D">
            <g id="Commits" transform="translate(833.000000, 1302.000000)">
                <g id="Title" transform="translate(24.000000, 24.000000)">
                    <g id="002-circle-of-two-clockwise-arrows-rotation" transform="translate(361.000000, 4.000000)">
                        <path d="M15.7824259,1.01838752 C15.6506482,0.960707946 15.4989629,0.992607901 15.3983679,1.09887926 L13.9333099,2.64120499 C12.3613147,0.937895769 10.2611516,0 8.01916896,0 C7.54491018,0 7.06659941,0.0435842408 6.597802,0.129269004 C3.40677327,0.713112365 0.821252498,3.22801579 0.0112072209,6.53652333 C-0.0160996556,6.64761678 0.00715523277,6.76557242 0.0737487767,6.85626474 C0.140518494,6.94695705 0.243227584,7 0.352278917,7 L2.59637564,7 C2.74418512,7 2.87649134,6.90281642 2.92722928,6.75648465 C3.58417988,4.86604139 5.21607405,3.42349575 7.08456909,3.08168402 C7.39234402,3.02548817 7.70558032,2.99711205 8.01617401,2.99711205 C9.5009634,2.99711205 10.8876242,3.62287047 11.9215859,4.75902816 L10.4338015,6.32509339 C10.3332065,6.43117929 10.3030809,6.59067907 10.3573423,6.72922131 C10.4121322,6.86794902 10.5403864,6.95827041 10.6829107,6.95827041 L15.6476532,6.95827041 C15.8421486,6.95827041 16,6.7920939 16,6.5873407 L16,1.3609411 C16,1.2110855 15.9138512,1.07588162 15.7824259,1.01838752 Z" id="Path"></path>
                        <path d="M15.6475374,10 L13.4035927,10 C13.2557816,10 13.123474,10.0969955 13.0727355,10.2433234 C12.4157778,12.1337166 10.783866,13.5764095 8.91535085,13.9180267 C8.60739643,13.9742211 8.29433293,14.0025964 7.98373588,14.0025964 C6.49893049,14.0025964 5.11207856,13.3768546 4.07828192,12.240727 L5.56590612,10.6747033 C5.66667839,10.5686202 5.69680437,10.4091246 5.6423662,10.2705861 C5.58775186,10.131862 5.45932007,10.041543 5.31679425,10.041543 L0.352350592,10.041543 C0.157853065,10.041543 0,10.2077151 0,10.4124629 L0,15.6389095 C0,15.7889466 0.0857973691,15.9241469 0.21757649,15.9816395 C0.349003261,16.039132 0.500690191,16.0072329 0.60146246,15.9009644 L2.06653622,14.358865 C3.63837221,16.0619436 5.73855791,17 7.98056473,17 C8.4550048,17 8.93332073,16.9564169 9.40212319,16.8707344 C12.5930101,16.2872774 15.178735,13.7720697 15.988789,10.4636499 C16.0160961,10.3523739 15.992841,10.2347923 15.9264229,10.1437315 C15.8594763,10.053227 15.7565899,10 15.6475374,10 Z" id="Path"></path>
                    </g>
                </g>
            </g>
        </g>
    </g>
</svg>