<?xml version="1.0" encoding="UTF-8"?>
<svg width="16px" height="16px" viewBox="0 0 16 16" version="1.1" xmlns="http://www.w3.org/2000/svg" xmlns:xlink="http://www.w3.org/1999/xlink">
    <!-- Generator: Sketch 55.2 (78181) - https://sketchapp.com -->
    <title>Shape</title>
    <desc>Created with Sketch.</desc>
    <g id="Page-1" stroke="none" stroke-width="1" fill="none" fill-rule="evenodd">
        <g id="Lint-Dashboard-Dark" transform="translate(-470.000000, -936.000000)" fill="#67758D">
            <g id="Balance" transform="translate(150.000000, 908.000000)">
                <g id="Title" transform="translate(24.000000, 24.000000)">
                    <g id="014-warning" transform="translate(296.000000, 4.000000)">
                        <path d="M8,0 C3.58165261,0 0,3.58148436 0,8 C0,12.4181791 3.58165261,16 8,16 C12.4185156,16 16,12.4181791 16,8 C16,3.58148436 12.4185156,0 8,0 Z M9.35708427,13.4693895 C9.35708427,13.5997813 9.2512566,13.705609 9.12069654,13.705609 L6.8794717,13.705609 C6.7490799,13.705609 6.64325222,13.5997813 6.64325222,13.4693895 L6.64325222,11.3967486 C6.64325222,11.2661886 6.7490799,11.1603609 6.8794717,11.1603609 L9.12069654,11.1603609 C9.2512566,11.1603609 9.35708427,11.2661886 9.35708427,11.3967486 L9.35708427,13.4693895 Z M9.36162695,9.72083535 C9.35809376,9.84903994 9.25327557,9.95066142 9.12557572,9.95066142 L6.87492902,9.95066142 C6.74689268,9.95066142 6.64207449,9.84903994 6.63870954,9.72117184 L6.4401775,2.53717218 C6.43832678,2.47340638 6.46255442,2.41165955 6.50697176,2.36589623 C6.55155734,2.32013292 6.61246293,2.2942228 6.67639698,2.2942228 L9.32326653,2.2942228 C9.38720057,2.2942228 9.44810616,2.31996467 9.49269175,2.36589623 C9.53727733,2.4114913 9.56116848,2.47340638 9.559486,2.53717218 L9.36162695,9.72083535 Z" id="Shape"></path>
                    </g>
                </g>
            </g>
        </g>
    </g>
</svg>