<svg width="1140px" height="454px" viewBox="0 0 1140 454" version="1.1" xmlns="http://www.w3.org/2000/svg" xmlns:xlink="http://www.w3.org/1999/xlink">
    <defs>
        <rect id="path-1" x="0" y="0" width="1140" height="449" rx="4"></rect>
        <filter x="-0.2%" y="-0.6%" width="100.4%" height="102.2%" filterUnits="objectBoundingBox" id="filter-2">
            <feMorphology radius="5" operator="erode" in="SourceAlpha" result="shadowSpreadOuter1"></feMorphology>
            <feOffset dx="0" dy="5" in="shadowSpreadOuter1" result="shadowOffsetOuter1"></feOffset>
            <feGaussianBlur stdDeviation="5" in="shadowOffsetOuter1" result="shadowBlurOuter1"></feGaussianBlur>
            <feComposite in="shadowBlurOuter1" in2="SourceAlpha" operator="out" result="shadowBlurOuter1"></feComposite>
            <feColorMatrix values="0 0 0 0 0   0 0 0 0 0   0 0 0 0 0  0 0 0 0.5 0" type="matrix" in="shadowBlurOuter1"></feColorMatrix>
        </filter>
        <linearGradient x1="50%" y1="0%" x2="50%" y2="100%" id="linearGradient-3">
            <stop stop-color="#3A96FD" offset="0%"></stop>
            <stop stop-color="#2E5BFF" stop-opacity="0" offset="100%"></stop>
        </linearGradient>
        <linearGradient x1="50%" y1="0%" x2="50%" y2="86.6183368%" id="linearGradient-4">
            <stop stop-color="#9D60FB" offset="0%"></stop>
            <stop stop-color="#2E5BFF" stop-opacity="0" offset="100%"></stop>
        </linearGradient>
    </defs>
    <g id="Page-1" stroke="none" stroke-width="1" fill="none" fill-rule="evenodd">
        <g id="Lint-Dashboard-Dark" transform="translate(-150.000000, -423.000000)">
            <g id="Big-Chart-Card" transform="translate(150.000000, 423.000000)">
                <g id="Rectangle">
                    <use fill="black" fill-opacity="1" filter="url(#filter-2)" xlink:href="#path-1"></use>
                    <rect stroke="#283040" stroke-width="1" stroke-linejoin="square" fill="#283040" fill-rule="evenodd" x="0.5" y="0.5" width="1139" height="448" rx="4"></rect>
                </g>
                <g id="chart" transform="translate(24.000000, 65.000000)">
                    <g id="Grid" transform="translate(52.000000, 32.000000)" stroke-linecap="square">
                        <g id="vertical" opacity="0.5" transform="translate(60.763209, 1.000000)" stroke="#8097B1" stroke-dasharray="2,2,2" stroke-width="0.5">
                            <path d="M1.01272016,0.739990234 L1.01272016,274.333074" id="Line-1" opacity="0.606809701"></path>
                            <path d="M61.7759295,0.739990234 L61.7759295,274.333074" id="Line-2" opacity="0.606809701"></path>
                            <path d="M122.539139,0.739990234 L122.539139,274.333074" id="Line-3" opacity="0.606809701"></path>
                            <path d="M183.302348,0.739990234 L183.302348,274.333074" id="Line-3" opacity="0.606809701"></path>
                            <path d="M244.065558,0.739990234 L244.065558,274.333074" id="Line-3" opacity="0.606809701"></path>
                            <path d="M304.828767,0.739990234 L304.828767,274.333074" id="Line-3" opacity="0.606809701"></path>
                            <path d="M365.591977,0.739990234 L365.591977,274.333074" id="Line-3" opacity="0.606809701"></path>
                            <path d="M426.355186,0.74 L426.355186,274.333074" id="Line-4" opacity="0.606809701"></path>
                            <path d="M487.118395,0.739990234 L487.118395,274.333074" id="Line-1" opacity="0.606809701"></path>
                            <path d="M547.881605,0.739990234 L547.881605,274.333074" id="Line-2" opacity="0.606809701"></path>
                            <path d="M608.644814,0.739990234 L608.644814,274.333074" id="Line-3" opacity="0.606809701"></path>
                            <path d="M669.408023,0.739990234 L669.408023,274.333074" id="Line-2" opacity="0.606809701"></path>
                            <path d="M730.171233,0.739990234 L730.171233,274.333074" id="Line-3" opacity="0.606809701"></path>
                            <path d="M790.934442,0.74 L790.934442,274.333074" id="Line-4" opacity="0.606809701"></path>
                            <path d="M851.697652,0.739990234 L851.697652,274.333074" id="Line-1" opacity="0.606809701"></path>
                            <path d="M912.460861,0.739990234 L912.460861,274.333074" id="Line-2" opacity="0.606809701"></path>
                            <path d="M973.22407,0.739990234 L973.22407,274.333074" id="Line-3" opacity="0.606809701"></path>
                        </g>
                        <g id="horizontal" opacity="0.5" transform="translate(2.025440, 0.000000)" stroke="#8097B1" stroke-dasharray="2,2,2,2" stroke-width="0.5">
                            <path d="M2.00345793,228.25 L1032.18275,228.25" id="Line-3" opacity="0.756413246"></path>
                            <path d="M0.235498539,183.25 L1030.41479,183.25" id="Line-4" opacity="0.756413246"></path>
                            <path d="M2.00345793,137.25 L1032.18275,137.25" id="Line-5" opacity="0.756413246"></path>
                            <path d="M0.235498539,91.25 L1030.41479,91.25" id="Line-6" opacity="0.756413246"></path>
                            <path d="M2.00345793,46.25 L1032.18275,46.25" id="Line-5" opacity="0.756413246"></path>
                            <path d="M0.235498539,1.25 L1030.41495,1.25" id="Line-6" opacity="0.756413246"></path>
                        </g>
                        <path d="M1.51908023,1.09002686 L1.51908023,274.590027" id="Line" stroke="#424B5F"></path>
                        <path d="M2.26093885,274.5 L1032.44023,274.5" id="Line" stroke="#424B5F"></path>
                    </g>
                    <g id="figure" transform="translate(52.000000, 33.000000)">
                        <polyline id="Path-5" fill-opacity="0.100000001" fill="url(#linearGradient-3)" points="4.04284323 153.5 63.6747809 121 125.32814 140.5 186.476144 82.5 246.108082 10.5 307.761441 26.5 366.888023 76 428.541383 107 489.184031 74 547.805258 61.5 609.963973 3 670.606621 48.5 732.259981 121 791.891918 144 854.050633 78.25 913 13 972.809153 26.5 1034.46251 33.5 1034.46251 227.016149 4.04284323 227.016149"></polyline>
                        <polyline id="Path-5" stroke="#3A96FD" stroke-width="2" points="4.04284323 153.5 63.6747809 121 125.32814 140.5 186.476144 82.5 246.108082 10.5 307.761441 26.5 366.888023 76 428.541383 107 489.184031 74 547.805258 61.5 609.963973 3 670.606621 48.5 732.259981 121 791.891918 144 854.050633 78.25 913 13 972.809153 26.5 1034.46251 33.5"></polyline>
                        <circle id="Oval" stroke="#3794FC" stroke-width="2" fill="#FFFFFF" cx="4.04284323" cy="153" r="3"></circle>
                        <circle id="Oval" stroke="#3794FC" stroke-width="2" fill="#FFFFFF" cx="63.6747809" cy="122" r="3"></circle>
                        <circle id="Oval" stroke="#3794FC" stroke-width="2" fill="#FFFFFF" cx="125.32814" cy="140" r="3"></circle>
                        <circle id="Oval" stroke="#3794FC" stroke-width="2" fill="#FFFFFF" cx="246.613437" cy="11" r="3"></circle>
                        <circle id="Oval" stroke="#3794FC" stroke-width="2" fill="#FFFFFF" cx="184.960078" cy="84" r="3"></circle>
                        <circle id="Oval" stroke="#3794FC" stroke-width="2" fill="#FFFFFF" cx="307.256086" cy="26" r="3"></circle>
                        <circle id="Oval" stroke="#3794FC" stroke-width="2" fill="#FFFFFF" cx="366.888023" cy="76" r="3"></circle>
                        <circle id="Oval" stroke="#3794FC" stroke-width="2" fill="#FFFFFF" cx="429.552093" cy="107" r="3"></circle>
                        <circle id="Oval" stroke="#3794FC" stroke-width="2" fill="#FFFFFF" cx="489.184031" cy="74" r="3"></circle>
                        <circle id="Oval" stroke="#3794FC" stroke-width="2" fill="#FFFFFF" cx="547.805258" cy="61" r="3"></circle>
                        <circle id="Oval" stroke="#3794FC" stroke-width="2" fill="#FFFFFF" cx="610.469328" cy="4" r="3"></circle>
                        <circle id="Oval" stroke="#3794FC" stroke-width="2" fill="#FFFFFF" cx="671.111977" cy="49" r="3"></circle>
                        <circle id="Oval" stroke="#3794FC" stroke-width="2" fill="#FFFFFF" cx="730.743914" cy="120" r="3"></circle>
                        <circle id="Oval" stroke="#3794FC" stroke-width="2" fill="#FFFFFF" cx="791.386563" cy="143" r="3"></circle>
                        <circle id="Oval" stroke="#3794FC" stroke-width="2" fill="#FFFFFF" cx="854.050633" cy="78" r="3"></circle>
                        <circle id="Oval" stroke="#3794FC" stroke-width="2" fill="#FFFFFF" cx="913.682571" cy="13" r="3"></circle>
                        <circle id="Oval" stroke="#3794FC" stroke-width="2" fill="#FFFFFF" cx="972.303797" cy="26" r="3"></circle>
                        <circle id="Oval" stroke="#3794FC" stroke-width="2" fill="#FFFFFF" cx="1033.95716" cy="34" r="3"></circle>
                    </g>
                    <g id="figure-2" transform="translate(50.000000, 124.000000)">
                        <polyline id="Path-5" fill-opacity="0.100000001" fill="url(#linearGradient-4)" points="4 137 64 154 125 101 188.476144 82.5 247 19 307 3 368 49 428 74 490 55 550 49 611 69 672.606621 48.5 732 83 793 93 854 55 914 55 975 49 1036 10 1036.46251 227.016149 4 173"></polyline>
                        <polyline id="Path-5" stroke="#9D60FB" stroke-width="2" points="4 139 66 154 125 101 188.476144 82.5 246 18 307 3 368 49 428 74 489 55 550 49 611 68 672.606621 48.5 732 83 793 93 854 55 915 55 975 49 1036 10"></polyline>
                        <g id="Group-2" transform="translate(0.042843, 0.000000)" fill="#FFFFFF" stroke="#9D60FB" stroke-width="2">
                            <circle id="Oval" cx="4" cy="139" r="3"></circle>
                            <circle id="Oval" cx="65" cy="153" r="3"></circle>
                            <circle id="Oval" cx="125.285297" cy="101" r="3"></circle>
                            <circle id="Oval" cx="246.570594" cy="18" r="3"></circle>
                            <circle id="Oval" cx="186.917235" cy="82" r="3"></circle>
                            <circle id="Oval" cx="308.213242" cy="4" r="3"></circle>
                            <circle id="Oval" cx="368.84518" cy="49" r="3"></circle>
                            <circle id="Oval" cx="429.50925" cy="73" r="3"></circle>
                            <circle id="Oval" cx="490.141188" cy="55" r="3"></circle>
                            <circle id="Oval" cx="550.762415" cy="49" r="3"></circle>
                            <circle id="Oval" cx="611.426485" cy="67" r="3"></circle>
                            <circle id="Oval" cx="672.069133" cy="49" r="3"></circle>
                            <circle id="Oval" cx="732.701071" cy="83" r="3"></circle>
                            <circle id="Oval" cx="793.34372" cy="93" r="3"></circle>
                            <circle id="Oval" cx="854.00779" cy="55" r="3"></circle>
                            <circle id="Oval" cx="915.639727" cy="55" r="3"></circle>
                            <circle id="Oval" cx="975.260954" cy="48" r="3"></circle>
                            <circle id="Oval" cx="1035.91431" cy="10" r="3"></circle>
                        </g>
                    </g>
                    <g id="dates" transform="translate(99.500000, 320.000000)" fill="#97A4BA" font-family="Helvetica" font-size="14" font-weight="normal">
                        <text id="Jan-1">
                            <tspan x="4.71386719" y="14">Jan </tspan>
                            <tspan x="12.1069336" y="31">1</tspan>
                        </text>
                        <text id="Jan-8">
                            <tspan x="60.3759766" y="14">Jan 8</tspan>
                        </text>
                        <text id="Jan-15">
                            <tspan x="126.213867" y="14">Jan </tspan>
                            <tspan x="129.713867" y="31">15</tspan>
                        </text>
                        <text id="Jan-22">
                            <tspan x="186.213867" y="14">Jan </tspan>
                            <tspan x="189.713867" y="31">22</tspan>
                        </text>
                        <text id="Feb-1">
                            <tspan x="246.437988" y="14">Feb </tspan>
                            <tspan x="254.606934" y="31">1</tspan>
                        </text>
                        <text id="Feb-8">
                            <tspan x="306.437988" y="14">Feb </tspan>
                            <tspan x="314.606934" y="31">8</tspan>
                        </text>
                        <text id="Feb-15">
                            <tspan x="366.937988" y="14">Feb </tspan>
                            <tspan x="371.213867" y="31">15</tspan>
                        </text>
                        <text id="Feb-22">
                            <tspan x="427.937988" y="14">Feb </tspan>
                            <tspan x="432.213867" y="31">22</tspan>
                        </text>
                        <text id="Mar-1">
                            <tspan x="489.444824" y="14">Mar </tspan>
                            <tspan x="497.606934" y="31">1</tspan>
                        </text>
                        <text id="Mar-8">
                            <tspan x="543.106934" y="14">Mar 8</tspan>
                        </text>
                        <text id="Mar-15">
                            <tspan x="609.944824" y="14">Mar </tspan>
                            <tspan x="614.213867" y="31">15</tspan>
                        </text>
                        <text id="Mar-22">
                            <tspan x="661.713867" y="14">Mar 22</tspan>
                        </text>
                        <text id="Apr-1">
                            <tspan x="732.106934" y="14">Apr </tspan>
                            <tspan x="739.106934" y="31">1</tspan>
                        </text>
                        <text id="Apr-8">
                            <tspan x="787.769043" y="14">Apr 8</tspan>
                        </text>
                        <text id="Apr-15">
                            <tspan x="854.106934" y="14">Apr </tspan>
                            <tspan x="857.213867" y="31">15</tspan>
                        </text>
                        <text id="Apr-22">
                            <tspan x="905.375977" y="14">Apr 22</tspan>
                        </text>
                    </g>
                    <g id="numbers" transform="translate(0.000000, 63.000000)" fill="#97A4BA" font-family="Helvetica" font-size="14" font-weight="normal">
                        <text id="0">
                            <tspan x="30.2138672" y="244">0</tspan>
                        </text>
                        <text id="$20k">
                            <tspan x="7.64160156" y="198">$20k</tspan>
                        </text>
                        <text id="$40k">
                            <tspan x="7.64160156" y="152">$40k</tspan>
                        </text>
                        <text id="$60k">
                            <tspan x="7.64160156" y="106">$60k</tspan>
                        </text>
                        <text id="$80k">
                            <tspan x="7.64160156" y="60">$80k</tspan>
                        </text>
                        <text id="$100k">
                            <tspan x="6.85546875" y="14">$100</tspan>
                            <tspan x="31" y="31">k</tspan>
                        </text>
                    </g>
                    <g id="legend" transform="translate(947.000000, 0.000000)">
                        <circle id="Oval" fill="#3794FC" cx="5" cy="9" r="5"></circle>
                        <text id="Revenue" font-family="Helvetica" font-size="14" font-weight="normal" fill="#67758D">
                            <tspan x="18" y="14">Revenue</tspan>
                        </text>
                        <circle id="Oval-Copy" fill="#9D60FB" cx="94" cy="9" r="5"></circle>
                        <text id="Cost" font-family="Helvetica" font-size="14" font-weight="normal" fill="#67758D">
                            <tspan x="107" y="14">Cost</tspan>
                        </text>
                    </g>
                </g>
                <g id="Title" transform="translate(24.000000, 24.000000)">
                    <text id="Projection" font-family="Helvetica" font-size="20" font-weight="normal" fill="#C4CFDD">
                        <tspan x="0" y="19">Projection</tspan>
                    </text>
                    <g id="more" transform="translate(1065.000000, 0.000000)" fill="#67758D">
                        <circle id="Oval" cx="3" cy="3" r="3"></circle>
                        <circle id="Oval-Copy-2" cx="13" cy="3" r="3"></circle>
                        <circle id="Oval-Copy-3" cx="23" cy="3" r="3"></circle>
                    </g>
                </g>
            </g>
        </g>
    </g>
</svg>