<svg width="9px" height="13px" viewBox="0 0 9 13" version="1.1" xmlns="http://www.w3.org/2000/svg" xmlns:xlink="http://www.w3.org/1999/xlink">
    <g id="Page-1" stroke="none" stroke-width="1" fill="none" fill-rule="evenodd">
        <g id="Lint-Dashboard-Dark" transform="translate(-1256.000000, -1616.000000)" fill="#67758D">
            <g id="Commits" transform="translate(833.000000, 1302.000000)">
                <g id="commits" transform="translate(1.000000, 73.000000)">
                    <g id="commit-copy-6" transform="translate(0.000000, 228.000000)">
                        <g id="004-arrow-angle-pointing-to-right" transform="translate(422.000000, 13.000000)">
                            <path d="M2.3052851,12.9223167 L8.92094599,6.68751942 C9.02635134,6.58818016 9.02635134,6.41228343 8.92094599,6.31294416 L2.30500402,0.0776170802 C2.25230135,0.027947447 2.18076626,0 2.10627982,0 C2.03179337,0 1.96025828,0.027947447 1.90755561,0.0776170802 L0.0823567073,1.79777582 C0.0274053889,1.84956469 0,1.91724784 0,1.98506345 C0,2.05287906 0.0274053889,2.12056221 0.0823567073,2.17235108 L4.67437557,6.50009934 L0.0824972477,10.8279801 C-0.0230486348,10.9273193 -0.0229080943,11.103216 0.0824972477,11.2025553 L1.90769615,12.9223167 C2.01759879,13.0258944 2.19552301,13.0258944 2.3052851,12.9223167 Z" id="Path"></path>
                        </g>
                    </g>
                </g>
            </g>
        </g>
    </g>
</svg>